<mxfile host="65bd71144e">
    <diagram id="cgmyOsK2eIYhg5Rcs4Wb" name="Page-1">
        <mxGraphModel dx="533" dy="1680" grid="0" gridSize="10" guides="1" tooltips="1" connect="1" arrows="1" fold="1" page="1" pageScale="1" pageWidth="850" pageHeight="1100" background="#ffffff" math="0" shadow="0">
            <root>
                <mxCell id="0"/>
                <mxCell id="1" parent="0"/>
                <mxCell id="5" value="" style="edgeStyle=orthogonalEdgeStyle;rounded=0;orthogonalLoop=1;jettySize=auto;html=1;fillColor=#60a917;strokeColor=#2D7600;startArrow=none;" parent="1" source="21" target="4" edge="1">
                    <mxGeometry relative="1" as="geometry"/>
                </mxCell>
                <mxCell id="2" value="" style="rounded=0;whiteSpace=wrap;html=1;" parent="1" vertex="1">
                    <mxGeometry x="180" y="40" width="120" height="60" as="geometry"/>
                </mxCell>
                <mxCell id="3" value="Financial institute" style="text;html=1;strokeColor=none;fillColor=none;align=center;verticalAlign=middle;whiteSpace=wrap;rounded=0;" parent="1" vertex="1">
                    <mxGeometry x="210" y="55" width="60" height="30" as="geometry"/>
                </mxCell>
                <mxCell id="8" value="" style="edgeStyle=orthogonalEdgeStyle;rounded=0;orthogonalLoop=1;jettySize=auto;html=1;fillColor=#60a917;strokeColor=#2D7600;" parent="1" source="4" target="7" edge="1">
                    <mxGeometry relative="1" as="geometry"/>
                </mxCell>
                <mxCell id="4" value="" style="rounded=0;whiteSpace=wrap;html=1;" parent="1" vertex="1">
                    <mxGeometry x="180" y="180" width="120" height="60" as="geometry"/>
                </mxCell>
                <mxCell id="6" value="Trust Network" style="text;html=1;strokeColor=none;fillColor=none;align=center;verticalAlign=middle;whiteSpace=wrap;rounded=0;" parent="1" vertex="1">
                    <mxGeometry x="210" y="200" width="80" height="20" as="geometry"/>
                </mxCell>
                <mxCell id="11" value="" style="edgeStyle=orthogonalEdgeStyle;rounded=0;orthogonalLoop=1;jettySize=auto;html=1;fillColor=#60a917;strokeColor=#2D7600;" parent="1" source="7" target="10" edge="1">
                    <mxGeometry relative="1" as="geometry"/>
                </mxCell>
                <mxCell id="7" value="" style="rounded=0;whiteSpace=wrap;html=1;" parent="1" vertex="1">
                    <mxGeometry x="180" y="320" width="120" height="60" as="geometry"/>
                </mxCell>
                <mxCell id="9" value="Channel" style="text;html=1;strokeColor=none;fillColor=none;align=center;verticalAlign=middle;whiteSpace=wrap;rounded=0;" parent="1" vertex="1">
                    <mxGeometry x="200" y="340" width="80" height="20" as="geometry"/>
                </mxCell>
                <mxCell id="10" value="" style="rounded=0;whiteSpace=wrap;html=1;" parent="1" vertex="1">
                    <mxGeometry x="180" y="460" width="120" height="60" as="geometry"/>
                </mxCell>
                <mxCell id="12" value="Customer" style="text;html=1;strokeColor=none;fillColor=none;align=center;verticalAlign=middle;whiteSpace=wrap;rounded=0;" parent="1" vertex="1">
                    <mxGeometry x="200" y="480" width="80" height="20" as="geometry"/>
                </mxCell>
                <mxCell id="13" value="" style="curved=1;endArrow=classic;html=1;exitX=0;exitY=0.5;exitDx=0;exitDy=0;entryX=0;entryY=0.5;entryDx=0;entryDy=0;fillColor=#d80073;strokeColor=#A50040;" parent="1" source="10" target="4" edge="1">
                    <mxGeometry width="50" height="50" relative="1" as="geometry">
                        <mxPoint x="230" y="340" as="sourcePoint"/>
                        <mxPoint x="170" y="210" as="targetPoint"/>
                        <Array as="points">
                            <mxPoint x="80" y="320"/>
                            <mxPoint x="50" y="210"/>
                        </Array>
                    </mxGeometry>
                </mxCell>
                <mxCell id="14" value="&lt;h1&gt;&lt;font style=&quot;font-size: 14px&quot; color=&quot;#ff33ff&quot;&gt;Current implementation&lt;/font&gt;&lt;/h1&gt;" style="text;html=1;strokeColor=none;fillColor=none;spacing=5;spacingTop=-20;whiteSpace=wrap;overflow=hidden;rounded=0;" parent="1" vertex="1">
                    <mxGeometry x="174" y="3" width="170" height="30" as="geometry"/>
                </mxCell>
                <mxCell id="15" value="Financial institutes; these are the investors (buyers)" style="shape=note;whiteSpace=wrap;html=1;backgroundOutline=1;darkOpacity=0.05;fillColor=#008a00;strokeColor=#005700;fontColor=#ffffff;size=10;" parent="1" vertex="1">
                    <mxGeometry x="330" y="40" width="79" height="92" as="geometry"/>
                </mxCell>
                <mxCell id="17" value="Trust Networks; groups of customers with the same borrowing characteritics" style="shape=note;whiteSpace=wrap;html=1;backgroundOutline=1;darkOpacity=0.05;fillColor=#008a00;strokeColor=#005700;fontColor=#ffffff;size=10;" parent="1" vertex="1">
                    <mxGeometry x="336" y="159" width="79" height="98" as="geometry"/>
                </mxCell>
                <mxCell id="18" value="Channel: the avenue through which the load requests are made, dispactched, and paybacks accomodate" style="shape=note;whiteSpace=wrap;html=1;backgroundOutline=1;darkOpacity=0.05;fillColor=#008a00;strokeColor=#005700;fontColor=#ffffff;size=10;" parent="1" vertex="1">
                    <mxGeometry x="332" y="292" width="90" height="108" as="geometry"/>
                </mxCell>
                <mxCell id="19" value="Customer:&lt;br&gt;this is an individual or entity partaking of the loan facilities in form of products or actual cash" style="shape=note;whiteSpace=wrap;html=1;backgroundOutline=1;darkOpacity=0.05;fillColor=#008a00;strokeColor=#005700;fontColor=#ffffff;size=10;" parent="1" vertex="1">
                    <mxGeometry x="330" y="450" width="90" height="108" as="geometry"/>
                </mxCell>
                <mxCell id="20" value="" style="swimlane;startSize=0;gradientColor=#FF33FF;strokeColor=#0000FF;" parent="1" vertex="1">
                    <mxGeometry x="59" y="14" width="463" height="563" as="geometry"/>
                </mxCell>
                <mxCell id="21" value="&lt;font color=&quot;#000000&quot;&gt;RF monitoring platform&lt;/font&gt;" style="text;html=1;align=center;verticalAlign=middle;resizable=0;points=[];autosize=1;strokeColor=none;" vertex="1" parent="1">
                    <mxGeometry x="165" y="124" width="132" height="18" as="geometry"/>
                </mxCell>
                <mxCell id="22" value="" style="edgeStyle=orthogonalEdgeStyle;rounded=0;orthogonalLoop=1;jettySize=auto;html=1;fillColor=#60a917;strokeColor=#2D7600;endArrow=none;" edge="1" parent="1" source="2" target="21">
                    <mxGeometry relative="1" as="geometry">
                        <mxPoint x="240" y="100" as="sourcePoint"/>
                        <mxPoint x="240" y="180" as="targetPoint"/>
                    </mxGeometry>
                </mxCell>
            </root>
        </mxGraphModel>
    </diagram>
    <diagram id="pxfbGONt4FBcwZYg-YJn" name="Page-2">
        <mxGraphModel dx="533" dy="1680" grid="0" gridSize="10" guides="1" tooltips="1" connect="1" arrows="1" fold="1" page="1" pageScale="1" pageWidth="850" pageHeight="1100" background="#ffffff" math="0" shadow="0">
            <root>
                <mxCell id="omSjNrQMJ6TnqF1ggQyg-0"/>
                <mxCell id="omSjNrQMJ6TnqF1ggQyg-1" parent="omSjNrQMJ6TnqF1ggQyg-0"/>
                <mxCell id="ytFhpSNRjVN4MV2daEN6-0" value="" style="edgeStyle=orthogonalEdgeStyle;rounded=0;orthogonalLoop=1;jettySize=auto;html=1;fillColor=#60a917;strokeColor=#2D7600;" parent="omSjNrQMJ6TnqF1ggQyg-1" source="ytFhpSNRjVN4MV2daEN6-1" target="ytFhpSNRjVN4MV2daEN6-4" edge="1">
                    <mxGeometry relative="1" as="geometry"/>
                </mxCell>
                <mxCell id="ytFhpSNRjVN4MV2daEN6-1" value="" style="rounded=0;whiteSpace=wrap;html=1;" parent="omSjNrQMJ6TnqF1ggQyg-1" vertex="1">
                    <mxGeometry x="180" y="76" width="120" height="60" as="geometry"/>
                </mxCell>
                <mxCell id="ytFhpSNRjVN4MV2daEN6-3" value="" style="edgeStyle=orthogonalEdgeStyle;rounded=0;orthogonalLoop=1;jettySize=auto;html=1;fillColor=#60a917;strokeColor=#2D7600;" parent="omSjNrQMJ6TnqF1ggQyg-1" source="ytFhpSNRjVN4MV2daEN6-4" target="ytFhpSNRjVN4MV2daEN6-7" edge="1">
                    <mxGeometry relative="1" as="geometry"/>
                </mxCell>
                <mxCell id="ytFhpSNRjVN4MV2daEN6-4" value="" style="rounded=0;whiteSpace=wrap;html=1;" parent="omSjNrQMJ6TnqF1ggQyg-1" vertex="1">
                    <mxGeometry x="180" y="190" width="120" height="60" as="geometry"/>
                </mxCell>
                <mxCell id="ytFhpSNRjVN4MV2daEN6-6" value="" style="edgeStyle=orthogonalEdgeStyle;rounded=0;orthogonalLoop=1;jettySize=auto;html=1;fillColor=#60a917;strokeColor=#2D7600;" parent="omSjNrQMJ6TnqF1ggQyg-1" source="ytFhpSNRjVN4MV2daEN6-7" target="ytFhpSNRjVN4MV2daEN6-9" edge="1">
                    <mxGeometry relative="1" as="geometry"/>
                </mxCell>
                <mxCell id="ytFhpSNRjVN4MV2daEN6-7" value="" style="rounded=0;whiteSpace=wrap;html=1;" parent="omSjNrQMJ6TnqF1ggQyg-1" vertex="1">
                    <mxGeometry x="180" y="320" width="120" height="60" as="geometry"/>
                </mxCell>
                <mxCell id="ytFhpSNRjVN4MV2daEN6-8" value="Trust Network" style="text;html=1;strokeColor=none;fillColor=none;align=center;verticalAlign=middle;whiteSpace=wrap;rounded=0;" parent="omSjNrQMJ6TnqF1ggQyg-1" vertex="1">
                    <mxGeometry x="200" y="340" width="80" height="20" as="geometry"/>
                </mxCell>
                <mxCell id="ytFhpSNRjVN4MV2daEN6-9" value="" style="rounded=0;whiteSpace=wrap;html=1;" parent="omSjNrQMJ6TnqF1ggQyg-1" vertex="1">
                    <mxGeometry x="180" y="460" width="120" height="60" as="geometry"/>
                </mxCell>
                <mxCell id="ytFhpSNRjVN4MV2daEN6-10" value="Customer" style="text;html=1;strokeColor=none;fillColor=none;align=center;verticalAlign=middle;whiteSpace=wrap;rounded=0;" parent="omSjNrQMJ6TnqF1ggQyg-1" vertex="1">
                    <mxGeometry x="200" y="480" width="80" height="20" as="geometry"/>
                </mxCell>
                <mxCell id="ytFhpSNRjVN4MV2daEN6-12" value="&lt;h1&gt;&lt;font style=&quot;font-size: 14px&quot; color=&quot;#ff33ff&quot;&gt;Proposed&amp;nbsp; implementation&lt;/font&gt;&lt;/h1&gt;" style="text;html=1;strokeColor=none;fillColor=none;spacing=5;spacingTop=-20;whiteSpace=wrap;overflow=hidden;rounded=0;" parent="omSjNrQMJ6TnqF1ggQyg-1" vertex="1">
                    <mxGeometry x="190" y="3" width="210" height="30" as="geometry"/>
                </mxCell>
                <mxCell id="ytFhpSNRjVN4MV2daEN6-16" value="coperatives, xente staff, innovation village,&lt;br&gt;uap" style="shape=note;whiteSpace=wrap;html=1;backgroundOutline=1;darkOpacity=0.05;fillColor=#008a00;strokeColor=#005700;fontColor=#ffffff;size=10;" parent="omSjNrQMJ6TnqF1ggQyg-1" vertex="1">
                    <mxGeometry x="332" y="292" width="90" height="108" as="geometry"/>
                </mxCell>
                <mxCell id="ytFhpSNRjVN4MV2daEN6-17" value="individual farmers..." style="shape=note;whiteSpace=wrap;html=1;backgroundOutline=1;darkOpacity=0.05;fillColor=#008a00;strokeColor=#005700;fontColor=#ffffff;size=10;" parent="omSjNrQMJ6TnqF1ggQyg-1" vertex="1">
                    <mxGeometry x="330" y="450" width="80" height="80" as="geometry"/>
                </mxCell>
                <mxCell id="ytFhpSNRjVN4MV2daEN6-18" value="" style="swimlane;startSize=0;gradientColor=#FF33FF;strokeColor=#0000FF;" parent="omSjNrQMJ6TnqF1ggQyg-1" vertex="1">
                    <mxGeometry x="53" y="55" width="524" height="563" as="geometry"/>
                </mxCell>
                <mxCell id="ytFhpSNRjVN4MV2daEN6-2" value="Financial institute" style="text;html=1;strokeColor=none;fillColor=none;align=center;verticalAlign=middle;whiteSpace=wrap;rounded=0;" parent="ytFhpSNRjVN4MV2daEN6-18" vertex="1">
                    <mxGeometry x="167" y="32" width="60" height="30" as="geometry"/>
                </mxCell>
                <mxCell id="ytFhpSNRjVN4MV2daEN6-13" value="Financial institutes; these are the investors (buyers)" style="shape=note;whiteSpace=wrap;html=1;backgroundOutline=1;darkOpacity=0.05;fillColor=#008a00;strokeColor=#005700;fontColor=#ffffff;size=10;" parent="ytFhpSNRjVN4MV2daEN6-18" vertex="1">
                    <mxGeometry x="291" y="5" width="79" height="92" as="geometry"/>
                </mxCell>
                <mxCell id="ytFhpSNRjVN4MV2daEN6-15" value="Xente, Hamwe, Jumia,&lt;br&gt;....." style="shape=note;whiteSpace=wrap;html=1;backgroundOutline=1;darkOpacity=0.05;fillColor=#008a00;strokeColor=#005700;fontColor=#ffffff;size=10;" parent="ytFhpSNRjVN4MV2daEN6-18" vertex="1">
                    <mxGeometry x="303" y="121" width="73.5" height="75" as="geometry"/>
                </mxCell>
                <mxCell id="ytFhpSNRjVN4MV2daEN6-5" value="Channel" style="text;html=1;strokeColor=none;fillColor=none;align=center;verticalAlign=middle;whiteSpace=wrap;rounded=0;" parent="ytFhpSNRjVN4MV2daEN6-18" vertex="1">
                    <mxGeometry x="141" y="152.5" width="80" height="20" as="geometry"/>
                </mxCell>
                <mxCell id="ytFhpSNRjVN4MV2daEN6-19" value="" style="endArrow=classic;html=1;fillColor=#1ba1e2;strokeColor=#006EAF;" parent="omSjNrQMJ6TnqF1ggQyg-1" edge="1">
                    <mxGeometry width="50" height="50" relative="1" as="geometry">
                        <mxPoint x="268" y="457" as="sourcePoint"/>
                        <mxPoint x="268" y="377" as="targetPoint"/>
                    </mxGeometry>
                </mxCell>
                <mxCell id="ytFhpSNRjVN4MV2daEN6-20" value="" style="endArrow=classic;html=1;fillColor=#1ba1e2;strokeColor=#006EAF;" parent="omSjNrQMJ6TnqF1ggQyg-1" edge="1">
                    <mxGeometry width="50" height="50" relative="1" as="geometry">
                        <mxPoint x="262" y="314" as="sourcePoint"/>
                        <mxPoint x="262" y="248" as="targetPoint"/>
                    </mxGeometry>
                </mxCell>
                <mxCell id="ytFhpSNRjVN4MV2daEN6-21" value="" style="endArrow=classic;html=1;fillColor=#1ba1e2;strokeColor=#006EAF;" parent="omSjNrQMJ6TnqF1ggQyg-1" edge="1">
                    <mxGeometry width="50" height="50" relative="1" as="geometry">
                        <mxPoint x="275" y="191" as="sourcePoint"/>
                        <mxPoint x="275" y="136" as="targetPoint"/>
                    </mxGeometry>
                </mxCell>
            </root>
        </mxGraphModel>
    </diagram>
</mxfile>